<svg xmlns="http://www.w3.org/2000/svg" xmlns:xlink="http://www.w3.org/1999/xlink" width="512" zoomAndPan="magnify" viewBox="0 0 384 383.999986" height="512" preserveAspectRatio="xMidYMid meet" version="1.0"><defs><clipPath id="d1f0594afa"><path d="M 18 0 L 366 0 C 370.773438 0 375.351562 1.894531 378.726562 5.273438 C 382.105469 8.648438 384 13.226562 384 18 L 384 366 C 384 375.941406 375.941406 384 366 384 L 18 384 C 13.226562 384 8.648438 382.105469 5.273438 378.726562 C 1.894531 375.351562 0 370.773438 0 366 L 0 18 C 0 8.058594 8.058594 0 18 0 Z M 18 0 " clip-rule="nonzero"/></clipPath><clipPath id="7b077fbaf0"><path d="M 18.335938 306.707031 L 71.066406 306.707031 L 71.066406 359.433594 L 18.335938 359.433594 Z M 18.335938 306.707031 " clip-rule="nonzero"/></clipPath><clipPath id="48d06331bb"><path d="M 36.335938 306.707031 L 53.066406 306.707031 C 63.003906 306.707031 71.066406 314.765625 71.066406 324.707031 L 71.066406 341.433594 C 71.066406 351.375 63.003906 359.433594 53.066406 359.433594 L 36.335938 359.433594 C 26.394531 359.433594 18.335938 351.375 18.335938 341.433594 L 18.335938 324.707031 C 18.335938 314.765625 26.394531 306.707031 36.335938 306.707031 Z M 36.335938 306.707031 " clip-rule="nonzero"/></clipPath><clipPath id="b1ef5324d2"><path d="M 91.746094 306.707031 L 144.476562 306.707031 L 144.476562 359.433594 L 91.746094 359.433594 Z M 91.746094 306.707031 " clip-rule="nonzero"/></clipPath><clipPath id="f5cac75668"><path d="M 109.746094 306.707031 L 126.476562 306.707031 C 136.417969 306.707031 144.476562 314.765625 144.476562 324.707031 L 144.476562 341.433594 C 144.476562 351.375 136.417969 359.433594 126.476562 359.433594 L 109.746094 359.433594 C 99.804688 359.433594 91.746094 351.375 91.746094 341.433594 L 91.746094 324.707031 C 91.746094 314.765625 99.804688 306.707031 109.746094 306.707031 Z M 109.746094 306.707031 " clip-rule="nonzero"/></clipPath><clipPath id="c2d9d222b1"><path d="M 165.476562 306.707031 L 218.207031 306.707031 L 218.207031 359.433594 L 165.476562 359.433594 Z M 165.476562 306.707031 " clip-rule="nonzero"/></clipPath><clipPath id="a38f4db901"><path d="M 183.476562 306.707031 L 200.207031 306.707031 C 210.148438 306.707031 218.207031 314.765625 218.207031 324.707031 L 218.207031 341.433594 C 218.207031 351.375 210.148438 359.433594 200.207031 359.433594 L 183.476562 359.433594 C 173.535156 359.433594 165.476562 351.375 165.476562 341.433594 L 165.476562 324.707031 C 165.476562 314.765625 173.535156 306.707031 183.476562 306.707031 Z M 183.476562 306.707031 " clip-rule="nonzero"/></clipPath><clipPath id="1b729008f9"><path d="M 239.207031 306.707031 L 291.933594 306.707031 L 291.933594 359.433594 L 239.207031 359.433594 Z M 239.207031 306.707031 " clip-rule="nonzero"/></clipPath><clipPath id="80fc34f528"><path d="M 257.207031 306.707031 L 273.933594 306.707031 C 283.875 306.707031 291.933594 314.765625 291.933594 324.707031 L 291.933594 341.433594 C 291.933594 351.375 283.875 359.433594 273.933594 359.433594 L 257.207031 359.433594 C 247.265625 359.433594 239.207031 351.375 239.207031 341.433594 L 239.207031 324.707031 C 239.207031 314.765625 247.265625 306.707031 257.207031 306.707031 Z M 257.207031 306.707031 " clip-rule="nonzero"/></clipPath><clipPath id="26af7d6e46"><path d="M 312.933594 306.707031 L 365.664062 306.707031 L 365.664062 359.433594 L 312.933594 359.433594 Z M 312.933594 306.707031 " clip-rule="nonzero"/></clipPath><clipPath id="7ee2684dc8"><path d="M 330.933594 306.707031 L 347.664062 306.707031 C 357.605469 306.707031 365.664062 314.765625 365.664062 324.707031 L 365.664062 341.433594 C 365.664062 351.375 357.605469 359.433594 347.664062 359.433594 L 330.933594 359.433594 C 320.996094 359.433594 312.933594 351.375 312.933594 341.433594 L 312.933594 324.707031 C 312.933594 314.765625 320.996094 306.707031 330.933594 306.707031 Z M 330.933594 306.707031 " clip-rule="nonzero"/></clipPath><clipPath id="392b0aa179"><path d="M 115.042969 156 L 261 156 L 261 231 L 115.042969 231 Z M 115.042969 156 " clip-rule="nonzero"/></clipPath><clipPath id="7882ff1078"><path d="M 123 83.289062 L 268.792969 83.289062 L 268.792969 158 L 123 158 Z M 123 83.289062 " clip-rule="nonzero"/></clipPath></defs><g clip-path="url(#d1f0594afa)"><rect x="-38.4" width="460.8" fill="#000000" y="-38.399999" height="460.799983" fill-opacity="1"/></g><g clip-path="url(#7b077fbaf0)"><g clip-path="url(#48d06331bb)"><path fill="#ffffff" d="M 18.335938 306.707031 L 71.066406 306.707031 L 71.066406 359.433594 L 18.335938 359.433594 Z M 18.335938 306.707031 " fill-opacity="1" fill-rule="nonzero"/></g></g><g clip-path="url(#b1ef5324d2)"><g clip-path="url(#f5cac75668)"><path fill="#ffffff" d="M 91.746094 306.707031 L 144.476562 306.707031 L 144.476562 359.433594 L 91.746094 359.433594 Z M 91.746094 306.707031 " fill-opacity="1" fill-rule="nonzero"/></g></g><g clip-path="url(#c2d9d222b1)"><g clip-path="url(#a38f4db901)"><path fill="#ffffff" d="M 165.476562 306.707031 L 218.207031 306.707031 L 218.207031 359.433594 L 165.476562 359.433594 Z M 165.476562 306.707031 " fill-opacity="1" fill-rule="nonzero"/></g></g><g clip-path="url(#1b729008f9)"><g clip-path="url(#80fc34f528)"><path fill="#ffffff" d="M 239.207031 306.707031 L 291.933594 306.707031 L 291.933594 359.433594 L 239.207031 359.433594 Z M 239.207031 306.707031 " fill-opacity="1" fill-rule="nonzero"/></g></g><g clip-path="url(#26af7d6e46)"><g clip-path="url(#7ee2684dc8)"><path fill="#ffffff" d="M 312.933594 306.707031 L 365.664062 306.707031 L 365.664062 359.433594 L 312.933594 359.433594 Z M 312.933594 306.707031 " fill-opacity="1" fill-rule="nonzero"/></g></g><g clip-path="url(#392b0aa179)"><path fill="#ffffff" d="M 260.722656 182.652344 C 250.300781 210.578125 223.332031 230.523438 191.820312 230.523438 C 161.640625 230.523438 135.664062 212.226562 124.367188 186.152344 L 115.042969 194.675781 L 118.324219 157.351562 C 118.324219 157.25 118.3125 157.125 118.3125 157.019531 L 118.363281 157.019531 L 118.363281 156.871094 L 156.328125 156.914062 L 142.664062 169.417969 C 148.210938 191.425781 168.109375 207.765625 191.816406 207.765625 C 210.453125 207.765625 226.769531 197.679688 235.605469 182.652344 Z M 260.722656 182.652344 " fill-opacity="1" fill-rule="nonzero"/></g><g clip-path="url(#7882ff1078)"><path fill="#ffffff" d="M 148.25 131.007812 C 157.128906 116.210938 173.332031 106.292969 191.820312 106.292969 C 215.453125 106.292969 235.273438 122.527344 240.902344 144.410156 L 227.359375 156.808594 L 242.550781 156.828125 C 242.550781 156.890625 242.570312 156.953125 242.570312 157.015625 L 265.328125 157.015625 C 265.328125 156.976562 265.328125 156.914062 265.328125 156.871094 L 268.640625 119.046875 L 259.179688 127.71875 C 247.820312 101.730469 221.914062 83.515625 191.820312 83.515625 C 160.441406 83.515625 133.597656 103.292969 123.066406 131.007812 Z M 148.25 131.007812 " fill-opacity="1" fill-rule="nonzero"/></g></svg>